Coordinates
version=1
nRows=26
nColumns=24
inDegrees=yes

Units are S.I. units (second, meters, Newtons, ...)
Angles are in degrees.

endheader
time	pelvis_tilt	pelvis_list	pelvis_rotation	pelvis_tx	pelvis_ty	pelvis_tz	hip_flexion_r	hip_adduction_r	hip_rotation_r	knee_angle_r	ankle_angle_r	subtalar_angle_r	mtp_angle_r	hip_flexion_l	hip_adduction_l	hip_rotation_l	knee_angle_l	ankle_angle_l	subtalar_angle_l	mtp_angle_l	lumbar_extension	lumbar_bending	lumbar_rotation
      0.87050000	      1.94768785	     -6.00430728	      9.23999376	     -0.51588708	      1.02865695	      0.33259485	      7.93633038	     11.65364612	     -3.69320747	    -13.99150539	      3.35238838	    -15.62848906	      2.00999355	     12.09698674	     -8.76441441	      0.86622557	    -68.30873206	     -8.13655259	     -3.87838195	      3.99744827	     -2.67893218	      3.72702638	     -4.10723424
      0.87466667	      1.94715831	     -5.85424942	      9.25677352	     -0.51105067	      1.02940922	      0.33273429	      7.47318698	     11.55976395	     -3.64822407	    -13.71434276	      3.44275897	    -15.58302201	      2.01312083	     12.69596908	     -8.58291352	      0.86203863	    -68.30828817	     -7.17427534	     -4.10778805	      3.95750622	     -2.75610072	      3.54095040	     -4.03339748
      0.87883333	      1.93995891	     -5.70591325	      9.26245248	     -0.50624600	      1.03011987	      0.33287626	      7.02402040	     11.46557071	     -3.60204629	    -13.44902573	      3.53647813	    -15.52322214	      2.01573987	     13.29302266	     -8.39993133	      0.84095311	    -68.25853823	     -6.26370175	     -4.38247133	      3.92224332	     -2.84136647	      3.35872871	     -3.95444691
      0.88300000	      1.91513148	     -5.55043337	      9.25502517	     -0.50138513	      1.03081501	      0.33301426	      6.57688419	     11.36086604	     -3.54906385	    -13.15915430	      3.63220516	    -15.45828559	      2.01781983	     13.88183837	     -8.19987002	      0.80996206	    -68.13522351	     -5.43730254	     -4.69480814	      3.90493979	     -2.85917921	      3.17261315	     -3.89384207
      0.88716667	      1.90281026	     -5.39578231	      9.23493221	     -0.49657117	      1.03150380	      0.33317439	      6.12500111	     11.26002946	     -3.48170722	    -12.88425434	      3.73206829	    -15.38755130	      2.01963553	     14.44606835	     -8.00547556	      0.76265387	    -67.96198199	     -4.62625102	     -4.96679188	      3.88052431	     -2.92601625	      2.98245157	     -3.80967043
      0.89133333	      1.94285999	     -5.23342359	      9.19153797	     -0.49176593	      1.03225176	      0.33337620	      5.60741035	     11.16368227	     -3.37642584	    -12.59706602	      3.85595432	    -15.28237179	      2.01896871	     14.93066205	     -7.82272669	      0.68291878	    -67.73214092	     -3.80880501	     -5.11039071	      3.75258105	     -3.06927151	      2.78234468	     -3.57530787
      0.89550000	      1.92355082	     -5.07337180	      9.14754569	     -0.48695927	      1.03290399	      0.33353887	      5.16057180	     11.05350993	     -3.30053613	    -12.31850731	      3.93546124	    -15.21643523	      2.01867050	     15.46730013	     -7.61467830	      0.61424673	    -67.44265519	     -3.12162442	     -5.44470508	      3.71988709	     -3.11641862	      2.59895776	     -3.52036914
      0.89966667	      1.97063599	     -4.88490608	      9.06914923	     -0.48216721	      1.03365416	      0.33376826	      4.62919864	     10.93039238	     -3.15802684	    -12.02964798	      4.05490883	    -15.12640254	      2.01113163	     15.89445425	     -7.39853473	      0.50365089	    -67.07576194	     -2.45808449	     -5.67902814	      3.54140327	     -3.27823204	      2.36693877	     -3.26930503
      0.90383333	      1.97262210	     -4.70276596	      8.98454205	     -0.47740880	      1.03430834	      0.33398251	      4.16511289	     10.80082675	     -3.03636610	    -11.77209345	      4.14530208	    -15.05980342	      2.00535698	     16.36318955	     -7.17309640	      0.39845558	    -66.66526162	     -1.83796917	     -5.97319867	      3.44448793	     -3.39662778	      2.15820220	     -3.16877035
      0.90800000	      2.00730341	     -4.52700967	      8.89000441	     -0.47261659	      1.03498058	      0.33422487	      3.64677883	     10.68594375	     -2.88534070	    -11.47476208	      4.25096967	    -14.98320715	      1.99364848	     16.77573474	     -6.96988368	      0.27483886	    -66.19438335	     -1.27660131	     -6.23528263	      3.29291556	     -3.51947218	      1.94226831	     -2.97443340
      0.91216667	      2.03733178	     -4.34881262	      8.78417524	     -0.46784724	      1.03562979	      0.33446486	      3.14307741	     10.56389506	     -2.73901812	    -11.19587581	      4.34105261	    -14.90941855	      1.97926977	     17.17532494	     -6.75847756	      0.14969097	    -65.66765693	     -0.73856006	     -6.50127159	      3.15225568	     -3.64904113	      1.74082725	     -2.81575080
      0.91633333	      2.07081675	     -4.17026864	      8.66667240	     -0.46308052	      1.03625613	      0.33472057	      2.63329548	     10.44019758	     -2.57746215	    -10.91080753	      4.43585962	    -14.83238690	      1.96105596	     17.55200974	     -6.55045792	      0.01279369	    -65.08414131	     -0.23661807	     -6.75289029	      3.00451230	     -3.77483511	      1.53005502	     -2.63622346
      0.92050000	      2.08817563	     -3.98528124	      8.53466797	     -0.45831728	      1.03683602	      0.33499526	      2.14610515	     10.30481914	     -2.41183302	    -10.63957059	      4.53415374	    -14.75406063	      1.93892916	     17.92477218	     -6.33341618	     -0.13406310	    -64.44387210	      0.22642244	     -6.99899328	      2.85214219	     -3.88561083	      1.31198348	     -2.45017545
      0.92466667	      2.09241033	     -3.80947949	      8.38658818	     -0.45358381	      1.03735522	      0.33528193	      1.69292320	     10.17216927	     -2.25695452	    -10.40284887	      4.62775946	    -14.68077358	      1.92689900	     18.29840947	     -6.12869509	     -0.29450926	    -63.75880152	      0.70479296	     -7.22109925	      2.77867902	     -3.99437261	      1.10278503	     -2.34001768
      0.92883333	      2.14852726	     -3.63455272	      8.24164264	     -0.44883918	      1.03793761	      0.33555793	      1.16140878	     10.04712830	     -2.07779604	    -10.11457092	      4.70129821	    -14.58762886	      1.88350916	     18.59363032	     -5.92969588	     -0.44453950	    -63.00905354	      1.12640112	     -7.43732906	      2.56918765	     -4.15173579	      0.91406428	     -2.04684072
      0.93300000	      2.15087285	     -3.44132605	      8.07222917	     -0.44410887	      1.03842125	      0.33586845	      0.70892677	      9.89071205	     -1.88687064	     -9.88223951	      4.83104509	    -14.51093412	      1.86727175	     18.92094834	     -5.70709268	     -0.61696446	    -62.19804681	      1.52075709	     -7.59773562	      2.49319876	     -4.25504992	      0.68303818	     -1.94194638
      0.93716667	      2.20541843	     -3.27289214	      7.91469188	     -0.43936130	      1.03893690	      0.33616610	      0.18511544	      9.76660407	     -1.70841564	     -9.60409410	      4.93680487	    -14.40525691	      1.83825854	     19.18125110	     -5.52127059	     -0.77824085	    -61.34149771	      1.89513978	     -7.76105460	      2.38366129	     -4.39810286	      0.48188681	     -1.71692733
      0.94133333	      2.16976871	     -3.11644240	      7.74513756	     -0.43462525	      1.03927072	      0.33647215	     -0.21801670	      9.63675862	     -1.54653860	     -9.36615213	      5.02454152	    -14.31064716	      1.82738462	     19.53025180	     -5.33480365	     -0.94316947	    -60.45091987	      2.29804566	     -7.91246753	      2.34647395	     -4.43825032	      0.26972746	     -1.63341842
      0.94550000	      2.20534266	     -2.92683394	      7.54913148	     -0.42991678	      1.03971692	      0.33678465	     -0.69308538	      9.47626851	     -1.34153255	     -9.15619214	      5.15402326	    -14.21479610	      1.80653851	     19.75704892	     -5.12245074	     -1.12215998	    -59.46799543	      2.62561736	     -8.01583889	      2.28158428	     -4.59268111	      0.06629566	     -1.41565882
      0.94966667	      2.24502200	     -2.76568118	      7.37337608	     -0.42517877	      1.04011441	      0.33707733	     -1.18831602	      9.34461787	     -1.16451109	     -8.89655458	      5.26774025	    -14.08640973	      1.76480137	     19.97473610	     -4.94015483	     -1.28088637	    -58.44964719	      2.93857098	     -8.12352121	      2.17055272	     -4.71531352	     -0.12123023	     -1.11820616
      0.95383333	      2.22626447	     -2.59490833	      7.17470097	     -0.42045304	      1.04040277	      0.33739012	     -1.59334751	      9.18952624	     -0.98532432	     -8.69793645	      5.38635257	    -13.98971387	      1.74146071	     20.23002303	     -4.74275436	     -1.45665721	    -57.37518623	      3.25472321	     -8.19525988	      2.11326547	     -4.78754243	     -0.33071965	     -0.99091413
      0.95800000	      2.27000725	     -2.44394099	      6.99237396	     -0.41571331	      1.04073990	      0.33766187	     -2.08495865	      9.06060040	     -0.81022072	     -8.44947103	      5.50959138	    -13.84803189	      1.69635261	     20.40281754	     -4.56960480	     -1.60970615	    -56.25045552	      3.53593775	     -8.26607071	      2.01450306	     -4.91051311	     -0.50481999	     -0.73289986
      0.96216667	      2.26679834	     -2.28935369	      6.79752602	     -0.41096532	      1.04097485	      0.33794243	     -2.50849208	      8.91749613	     -0.64069969	     -8.24051573	      5.64507865	    -13.72889010	      1.65581497	     20.60324711	     -4.38844397	     -1.77062301	    -55.07128304	      3.79439594	     -8.31267000	      1.93213769	     -4.97799493	     -0.69037182	     -0.55196019
      0.96633333	      2.23369835	     -2.14223956	      6.59895706	     -0.40623357	      1.04112757	      0.33820771	     -2.88758859	      8.77399899	     -0.46734951	     -8.05150923	      5.76644852	    -13.61348292	      1.62641256	     20.81872528	     -4.20638925	     -1.91821420	    -53.84329197	      4.04301899	     -8.34556335	      1.87561166	     -5.03130229	     -0.87311844	     -0.41228999
      0.97050000	      2.24958936	     -2.00341803	      6.41176018	     -0.40146609	      1.04131177	      0.33843626	     -3.33647984	      8.64175673	     -0.30779547	     -7.82461304	      5.91172805	    -13.46209219	      1.57973103	     20.95940694	     -4.03702099	     -2.05731083	    -52.56002654	      4.23941506	     -8.39404330	      1.79095260	     -5.11018958	     -1.03513502	     -0.17763113
      0.97466667	      2.18889183	     -1.87511053	      6.21394583	     -0.39671459	      1.04134168	      0.33867273	     -3.67534492	      8.50915583	     -0.13994624	     -7.65118896	      6.03806639	    -13.34742609	      1.55000487	     21.16644862	     -3.86648648	     -2.18208659	    -51.23192564	      4.43175587	     -8.40595207	      1.73877913	     -5.11915935	     -1.19537912	     -0.05323282
